<svg width="44" height="35" viewBox="0 0 44 35" fill="none" xmlns="http://www.w3.org/2000/svg">
<g clip-path="url(#clip0_64_1016)">
<path d="M2.65224 0.34862C1.9413 -0.211927 0.909076 -0.0820437 0.348529 0.628894C-0.212018 1.33983 -0.0821353 2.37206 0.628802 2.93261L41.0976 34.6514C41.8085 35.2119 42.8407 35.082 43.4013 34.3711C43.9618 33.6601 43.8319 32.6279 43.121 32.0674L35.9296 26.4346C38.6366 23.6592 40.4686 20.5488 41.3915 18.3408C41.6171 17.8008 41.6171 17.1992 41.3915 16.6592C40.3729 14.2187 38.2333 10.6641 35.0341 7.69725C31.8212 4.70311 27.3983 2.18749 21.8749 2.18749C17.2128 2.18749 13.33 3.98534 10.3017 6.34374L2.65224 0.34862ZM15.2509 10.2197C16.994 8.62694 19.3251 7.65624 21.8749 7.65624C27.3095 7.65624 31.7186 12.0654 31.7186 17.5C31.7186 19.2021 31.288 20.8017 30.5292 22.1963L27.8905 20.1318C28.4647 18.8125 28.6151 17.3017 28.2186 15.8047C27.4599 12.9678 24.9511 11.0605 22.162 10.9443C21.7655 10.9307 21.5331 11.3613 21.6561 11.7441C21.7997 12.1816 21.8817 12.6465 21.8817 13.1318C21.8817 13.8291 21.7177 14.4853 21.4306 15.0664L15.2577 10.2266L15.2509 10.2197ZM25.4979 26.6533C24.3768 27.0976 23.1532 27.3437 21.8749 27.3437C16.4403 27.3437 12.0311 22.9346 12.0311 17.5C12.0311 17.0283 12.0653 16.5703 12.1268 16.1191L5.68056 11.04C4.12197 13.0703 3.00771 15.0937 2.35829 16.6592C2.13271 17.1992 2.13271 17.8008 2.35829 18.3408C3.37685 20.7812 5.5165 24.3359 8.71572 27.3027C11.9286 30.2969 16.3515 32.8125 21.8749 32.8125C25.1425 32.8125 28.0204 31.9307 30.5019 30.5908L25.4979 26.6533Z" fill="#797171" fill-opacity="0.5"/>
</g>
<defs>
<clipPath id="clip0_64_1016">
<rect width="43.75" height="35" fill="white"/>
</clipPath>
</defs>
</svg>
