<svg width="44" height="35" viewBox="0 0 44 35" fill="none" xmlns="http://www.w3.org/2000/svg">
<path d="M21.8748 11.875C20.4244 11.875 19.0334 12.4676 18.0078 13.5225C16.9823 14.5774 16.4061 16.0082 16.4061 17.5C16.4061 18.9918 16.9823 20.4226 18.0078 21.4775C19.0334 22.5324 20.4244 23.125 21.8748 23.125C23.3252 23.125 24.7162 22.5324 25.7418 21.4775C26.7674 20.4226 27.3436 18.9918 27.3436 17.5C27.3436 16.0082 26.7674 14.5774 25.7418 13.5225C24.7162 12.4676 23.3252 11.875 21.8748 11.875ZM21.8748 26.875C19.4575 26.875 17.1392 25.8873 15.4299 24.1291C13.7205 22.371 12.7603 19.9864 12.7603 17.5C12.7603 15.0136 13.7205 12.629 15.4299 10.8709C17.1392 9.11272 19.4575 8.125 21.8748 8.125C24.2922 8.125 26.6105 9.11272 28.3198 10.8709C30.0291 12.629 30.9894 15.0136 30.9894 17.5C30.9894 19.9864 30.0291 22.371 28.3198 24.1291C26.6105 25.8873 24.2922 26.875 21.8748 26.875ZM21.8748 3.4375C12.7603 3.4375 4.9764 9.26875 1.82275 17.5C4.9764 25.7312 12.7603 31.5625 21.8748 31.5625C30.9894 31.5625 38.7733 25.7312 41.9269 17.5C38.7733 9.26875 30.9894 3.4375 21.8748 3.4375Z" fill="#797171" fill-opacity="0.5"/>
</svg>
