<svg width="30" height="30" viewBox="0 0 30 30" fill="none" xmlns="http://www.w3.org/2000/svg">
<path d="M25.4299 21.4453H23.3703C23.2297 21.4453 23.0978 21.5068 23.0099 21.6152C22.8049 21.8642 22.5851 22.1045 22.3537 22.333C21.4071 23.2805 20.2858 24.0357 19.0519 24.5566C17.7736 25.0966 16.3996 25.3736 15.0119 25.3711C13.6086 25.3711 12.2492 25.0957 10.9718 24.5566C9.73794 24.0357 8.61669 23.2805 7.67009 22.333C6.72179 21.3886 5.96564 20.2693 5.44352 19.0371C4.90153 17.7598 4.62907 16.4033 4.62907 15C4.62907 13.5967 4.90446 12.2402 5.44352 10.9629C5.96501 9.72948 6.71501 8.61912 7.67009 7.66698C8.62516 6.71483 9.73552 5.96483 10.9718 5.44334C12.2492 4.90428 13.6086 4.62889 15.0119 4.62889C16.4152 4.62889 17.7746 4.90135 19.0519 5.44334C20.2882 5.96483 21.3986 6.71483 22.3537 7.66698C22.5851 7.89842 22.8019 8.13866 23.0099 8.38475C23.0978 8.49315 23.2326 8.55467 23.3703 8.55467H25.4299C25.6144 8.55467 25.7287 8.34959 25.6261 8.19432C23.3791 4.70213 19.4474 2.39061 14.9797 2.40233C7.96012 2.41991 2.33219 8.11815 2.40251 15.1289C2.47282 22.0283 8.09196 27.5976 15.0119 27.5976C19.4679 27.5976 23.382 25.289 25.6261 21.8056C25.7257 21.6504 25.6144 21.4453 25.4299 21.4453ZM28.0343 14.8154L23.8771 11.5342C23.7218 11.4111 23.4963 11.5224 23.4963 11.7187V13.9453H14.297C14.1681 13.9453 14.0627 14.0508 14.0627 14.1797V15.8203C14.0627 15.9492 14.1681 16.0547 14.297 16.0547H23.4963V18.2812C23.4963 18.4775 23.7248 18.5889 23.8771 18.4658L28.0343 15.1846C28.0624 15.1626 28.085 15.1346 28.1006 15.1026C28.1162 15.0707 28.1243 15.0356 28.1243 15C28.1243 14.9644 28.1162 14.9293 28.1006 14.8973C28.085 14.8653 28.0624 14.8373 28.0343 14.8154Z" fill="white"/>
</svg>
